<svg xmlns="http://www.w3.org/2000/svg" width="17.514" height="10.612" viewBox="0 0 17.514 10.612"><defs><style>.a{fill:#fff;}.b{fill:#33348e;}.c{fill:#cc2229;}</style></defs><g transform="translate(-110.295 -559.45)"><path class="a" d="M127.809,570.047v-10.6H110.295v10.6Z" transform="translate(0 -0.001)"/><path class="b" d="M127.809,570.047v-10.6H110.295v10.6Z" transform="translate(0 -0.001)"/><path class="a" d="M121.081,570.049v-3.7h6.726v-3.2h-6.726v-3.7h-4.154v3.7h-6.631v3.2h6.631v3.7h4.154Z" transform="translate(0 -0.001)"/><path class="a" d="M112.428,559.451l15.38,9.315v1.291h-2.095l-15.418-9.338v-1.268Z" transform="translate(0 -0.001)"/><path class="a" d="M125.676,559.451l-15.381,9.319v1.292h2.095l15.419-9.342v-1.269Z" transform="translate(0 -0.001)"/><path class="c" d="M127.809,563.727h-7.49v-4.276h-2.526v4.276h-7.5v2.044h7.5v4.276h2.526v-4.276h7.49v-2.044Z" transform="translate(0 -0.001)"/><path class="c" d="M110.3,559.45l6.084,3.7h-1.366l-4.727-2.876v-.826Zm-.008,10.592v.019h1.335l5.3-3.223v-.479h-.578Zm17.514.019v-.773L123,566.358H121.63l6.085,3.7Zm-1.444-10.611-5.283,3.214v.487h.564l6.084-3.7Z"/></g></svg>