<?xml version="1.0" encoding="UTF-8" standalone="no" ?>
<!DOCTYPE svg PUBLIC "-//W3C//DTD SVG 1.1//EN" "http://www.w3.org/Graphics/SVG/1.1/DTD/svg11.dtd">
<svg xmlns="http://www.w3.org/2000/svg" xmlns:xlink="http://www.w3.org/1999/xlink" version="1.1" width="18" height="18" viewBox="0 0 18 18" xml:space="preserve">
<g transform="matrix(1 0 0 1 9 9)" id="k81VD5eCKqaFlkMjzxRAp"  >
<path style="stroke: rgb(0,0,0); stroke-width: 2; fill: none;" vector-effect="non-scaling-stroke"  transform=" translate(-8, -8)" d="M 8 0 C 12.416 0 16 3.584 16 8 C 16 12.416 12.416 16 8 16 C 3.5839999999999996 16 0 12.416 0 8 C 0 3.5839999999999996 3.584 0 8 0 z" stroke-linecap="round" />
</g>
<g transform="matrix(1 0 0 1 9 9)" id="nLSXjai93VCo5KICQgW3w"  >
<path style="fill: rgb(0,0,0);" vector-effect="non-scaling-stroke"  transform=" translate(-4, -4)" d="M 4 0 C 6.208 0 8 1.792 8 4 C 8 6.208 6.208 8 4 8 C 1.7919999999999998 8 0 6.208 0 4 C 0 1.7919999999999998 1.792 0 4 0 z" stroke-linecap="round" />
</g>
</svg>