<?xml version="1.0" encoding="UTF-8" standalone="no"?>
<svg
   xmlns:dc="http://purl.org/dc/elements/1.1/"
   xmlns:cc="http://creativecommons.org/ns#"
   xmlns:rdf="http://www.w3.org/1999/02/22-rdf-syntax-ns#"
   xmlns:svg="http://www.w3.org/2000/svg"
   xmlns="http://www.w3.org/2000/svg"
   xmlns:sodipodi="http://sodipodi.sourceforge.net/DTD/sodipodi-0.dtd"
   xmlns:inkscape="http://www.inkscape.org/namespaces/inkscape"
   version="1.1"
   id="Layer_1"
   x="0px"
   y="0px"
   width="20px"
   height="20px"
   viewBox="0 0 20 20"
   enable-background="new 0 0 20 20"
   xml:space="preserve"
   sodipodi:docname="arrow-left-base.svg"
   inkscape:version="1.0 (b51213c273, 2020-08-10)"><metadata
   id="metadata10"><rdf:RDF><cc:Work
       rdf:about=""><dc:format>image/svg+xml</dc:format><dc:type
         rdf:resource="http://purl.org/dc/dcmitype/StillImage" /></cc:Work></rdf:RDF></metadata><defs
   id="defs8" /><sodipodi:namedview
   pagecolor="#ffffff"
   bordercolor="#666666"
   borderopacity="1"
   objecttolerance="10"
   gridtolerance="10"
   guidetolerance="10"
   inkscape:pageopacity="0"
   inkscape:pageshadow="2"
   inkscape:window-width="712"
   inkscape:window-height="480"
   id="namedview6"
   showgrid="false"
   inkscape:zoom="28"
   inkscape:cx="9.9642857"
   inkscape:cy="10"
   inkscape:window-x="0"
   inkscape:window-y="27"
   inkscape:window-maximized="0"
   inkscape:current-layer="Layer_1" />
<path
   id="Path_760"
   fill="#06022e"
   d="m 8.9695006,15.035 v 0 c 0.303,-0.302 0.303,-0.791 0.002,-1.094 -0.001,0 -0.002,-0.001 -0.002,-0.001 l -3,-3.021 h 9.8640004 c 0.428,-0.002 0.774,-0.348 0.776,-0.776 v 0 c -0.002,-0.428 -0.349,-0.773 -0.776,-0.775 H 5.9695006 l 3.01,-3.014 c 0.303,-0.302 0.303,-0.791 0.002,-1.094 -0.001,-10e-4 -0.002,-10e-4 -0.002,-0.002 v 0 c -0.301,-0.302 -0.791,-0.303 -1.094,-0.002 0,10e-4 -0.001,0.002 -0.002,0.002 l -4.348,4.34 c -0.303,0.302 -0.303,0.791 -0.002,1.094 10e-4,0 0.002,10e-4 0.002,0.002 l 4.34,4.34 c 0.305,0.294 0.788,0.294 1.094,10e-4 z" />
<rect
   fill="none"
   width="20"
   height="20"
   id="rect3" />
</svg>
