<?xml version="1.0" encoding="utf-8"?>
<!-- Generator: Adobe Illustrator 16.0.0, SVG Export Plug-In . SVG Version: 6.00 Build 0)  -->
<!DOCTYPE svg PUBLIC "-//W3C//DTD SVG 1.1//EN" "http://www.w3.org/Graphics/SVG/1.1/DTD/svg11.dtd">
<svg version="1.1" id="Layer_1" xmlns="http://www.w3.org/2000/svg" xmlns:xlink="http://www.w3.org/1999/xlink" x="0px" y="0px"
	 width="20px" height="20px" viewBox="0 0 20 20" enable-background="new 0 0 20 20" xml:space="preserve">
<path id="Path_760" fill="#06022E" d="M10.948,15.035L10.948,15.035c-0.303-0.302-0.303-0.791-0.002-1.094
	c0.001,0,0.002-0.001,0.002-0.001l3-3.021H4.084c-0.428-0.002-0.774-0.348-0.776-0.776l0,0C3.31,9.715,3.657,9.37,4.084,9.368h9.864
	l-3.01-3.014c-0.303-0.302-0.303-0.791-0.002-1.094c0.001-0.001,0.002-0.001,0.002-0.002l0,0c0.301-0.302,0.791-0.303,1.094-0.002
	c0,0.001,0.001,0.002,0.002,0.002l4.348,4.34c0.303,0.302,0.303,0.791,0.002,1.094c-0.001,0-0.002,0.001-0.002,0.002l-4.34,4.34
	C11.737,15.328,11.254,15.328,10.948,15.035z"/>
<rect fill="none" width="20" height="20"/>
</svg>
