<?xml version="1.0" encoding="utf-8"?>
<!-- Generator: Adobe Illustrator 16.0.0, SVG Export Plug-In . SVG Version: 6.00 Build 0)  -->
<!DOCTYPE svg PUBLIC "-//W3C//DTD SVG 1.1//EN" "http://www.w3.org/Graphics/SVG/1.1/DTD/svg11.dtd">
<svg version="1.1" id="Layer_1" xmlns="http://www.w3.org/2000/svg" xmlns:xlink="http://www.w3.org/1999/xlink" x="0px" y="0px"
	 width="34px" height="34px" viewBox="0 0 34 34" enable-background="new 0 0 34 34" xml:space="preserve">
<g>
	<path fill="#D67B40" d="M16.723,1.496c-8.561,0-15.5,6.939-15.5,15.5c0,8.561,6.939,15.5,15.5,15.5s15.5-6.939,15.5-15.5
		C32.223,8.435,25.283,1.496,16.723,1.496z M16.723,29.996c-7.18,0-13-5.82-13-13c0-7.18,5.82-13,13-13c7.179,0,13,5.82,13,13
		C29.723,24.176,23.902,29.996,16.723,29.996z"/>
	<path fill="#D67B40" d="M16.791,20.859c0.809,0,1.488-0.5,1.535-1.346c0.128-2.351,0.21-9.422,0.21-9.488
		c0.001-1.004-0.788-1.818-1.749-1.818s-1.751,0.814-1.751,1.818c0,0.066,0.136,7.059,0.229,9.412
		C15.296,20.218,15.982,20.859,16.791,20.859z"/>
	<circle fill="#D67B40" cx="16.798" cy="23.984" r="1.808"/>
</g>
</svg>
