<?xml version="1.0" encoding="utf-8"?>
<!-- Generator: Adobe Illustrator 16.0.0, SVG Export Plug-In . SVG Version: 6.00 Build 0)  -->
<!DOCTYPE svg PUBLIC "-//W3C//DTD SVG 1.1//EN" "http://www.w3.org/Graphics/SVG/1.1/DTD/svg11.dtd">
<svg version="1.1" id="Layer_1" xmlns="http://www.w3.org/2000/svg" xmlns:xlink="http://www.w3.org/1999/xlink" x="0px" y="0px"
	 width="34px" height="34px" viewBox="0 0 34 34" enable-background="new 0 0 34 34" xml:space="preserve">
<g>
	<path fill="#3F805F" d="M16.723,1.496c-8.561,0-15.5,6.939-15.5,15.5c0,8.561,6.939,15.5,15.5,15.5s15.5-6.939,15.5-15.5
		C32.223,8.435,25.283,1.496,16.723,1.496z M16.723,29.996c-7.18,0-13-5.82-13-13c0-7.18,5.82-13,13-13c7.179,0,13,5.82,13,13
		C29.723,24.176,23.902,29.996,16.723,29.996z"/>
	<path fill="#3F805F" d="M24.813,11.928c-0.705-0.628-1.787-0.565-2.416,0.142l-7.391,8.554l-4.198-4.656
		c-0.828-0.657-1.813-0.532-2.344,0.112c-0.602,0.73-0.516,1.684,0.142,2.412l5.413,5.574c0.707,0.629,1.787,0.565,2.416-0.142
		l8.521-9.583C25.582,13.636,25.52,12.556,24.813,11.928z"/>
</g>
</svg>
