<?xml version="1.0" encoding="utf-8"?>
<!-- Generator: Adobe Illustrator 16.0.0, SVG Export Plug-In . SVG Version: 6.00 Build 0)  -->
<!DOCTYPE svg PUBLIC "-//W3C//DTD SVG 1.1//EN" "http://www.w3.org/Graphics/SVG/1.1/DTD/svg11.dtd">
<svg version="1.1" id="Layer_1" xmlns="http://www.w3.org/2000/svg" xmlns:xlink="http://www.w3.org/1999/xlink" x="0px" y="0px"
	 width="34px" height="34px" viewBox="0 0 34 34" enable-background="new 0 0 34 34" xml:space="preserve">
<g>
	<path fill="#4F4C69" d="M16.723,1.496c-8.561,0-15.5,6.939-15.5,15.5c0,8.561,6.939,15.5,15.5,15.5s15.5-6.939,15.5-15.5
		C32.223,8.435,25.283,1.496,16.723,1.496z M16.723,29.996c-7.18,0-13-5.82-13-13c0-7.18,5.82-13,13-13c7.179,0,13,5.82,13,13
		C29.723,24.176,23.902,29.996,16.723,29.996z"/>
	<path fill="#4F4C69" d="M16.775,13.208c-0.955,0-1.73,0.775-1.73,1.73c-0.022,0.112,0,8.88,0,9c0,0.955,0.775,1.73,1.73,1.73
		c0.956,0,1.73-0.775,1.73-1.73c0-0.065,0.007-8.936,0-9C18.506,13.984,17.73,13.208,16.775,13.208z"/>
	<circle fill="#4F4C69" cx="16.798" cy="9.939" r="1.808"/>
</g>
</svg>
