<?xml version="1.0" encoding="utf-8"?>
<!-- Generator: Adobe Illustrator 16.0.0, SVG Export Plug-In . SVG Version: 6.00 Build 0)  -->
<!DOCTYPE svg PUBLIC "-//W3C//DTD SVG 1.1//EN" "http://www.w3.org/Graphics/SVG/1.1/DTD/svg11.dtd">
<svg version="1.1" id="Layer_1" xmlns="http://www.w3.org/2000/svg" xmlns:xlink="http://www.w3.org/1999/xlink" x="0px" y="0px"
	 width="34px" height="34px" viewBox="0 0 34 34" enable-background="new 0 0 34 34" xml:space="preserve">
<g>
	<path fill="#B75555" d="M16.723,1.498c-8.561,0-15.5,6.939-15.5,15.5c0,8.561,6.939,15.5,15.5,15.5s15.5-6.939,15.5-15.5
		C32.223,8.437,25.283,1.498,16.723,1.498z M16.723,29.998c-7.18,0-13-5.82-13-13s5.82-13,13-13s13,5.82,13,13
		S23.902,29.998,16.723,29.998z"/>
	<path fill="#B75555" d="M22.949,10.767c-0.676-0.675-1.771-0.675-2.447,0c-0.035,0.035-1.742,1.835-3.726,3.815
		c-1.981-1.977-3.688-3.773-3.727-3.813c-0.676-0.676-1.772-0.676-2.447,0c-0.676,0.676-0.676,1.771,0,2.447
		c0.035,0.035,1.836,1.743,3.814,3.725c-1.983,1.981-3.788,3.686-3.814,3.726c-0.676,0.675-0.676,1.771,0,2.447
		c0.675,0.675,1.771,0.675,2.447,0c0.045-0.028,1.749-1.844,3.727-3.824c1.981,1.982,3.686,3.8,3.726,3.826
		c0.675,0.676,1.771,0.676,2.447,0c0.675-0.675,0.675-1.771,0-2.447c-0.028-0.045-1.821-1.75-3.803-3.729
		c1.976-1.98,3.764-3.686,3.803-3.725C23.625,12.539,23.625,11.442,22.949,10.767z"/>
</g>
</svg>
